<?xml version="1.0" encoding="UTF-8" standalone="no"?>
<svg
   version="1.1"
   viewBox="0 0 1504 1504"
   fill="none"
   stroke="none"
   stroke-linecap="square"
   stroke-miterlimit="10"
   id="svg19"
   sodipodi:docname="radix_color.svg"
   width="1504"
   height="1504"
   inkscape:version="1.2.1 (9c6d41e410, 2022-07-14)"
   inkscape:export-filename="radix_color.png"
   inkscape:export-xdpi="96"
   inkscape:export-ydpi="96"
   xmlns:inkscape="http://www.inkscape.org/namespaces/inkscape"
   xmlns:sodipodi="http://sodipodi.sourceforge.net/DTD/sodipodi-0.dtd"
   xmlns="http://www.w3.org/2000/svg"
   xmlns:svg="http://www.w3.org/2000/svg">
  <defs
     id="defs23" />
  <sodipodi:namedview
     id="namedview21"
     pagecolor="#ffffff"
     bordercolor="#000000"
     borderopacity="0.25"
     inkscape:showpageshadow="2"
     inkscape:pageopacity="0.0"
     inkscape:pagecheckerboard="0"
     inkscape:deskcolor="#d1d1d1"
     showgrid="false"
     inkscape:zoom="0.35980095"
     inkscape:cx="722.62178"
     inkscape:cy="894.93928"
     inkscape:window-width="1503"
     inkscape:window-height="933"
     inkscape:window-x="0"
     inkscape:window-y="0"
     inkscape:window-maximized="1"
     inkscape:current-layer="svg19" />
  <clipPath
     id="g18bf9d2af8b_0_7.0">
    <path
       d="M 0,0 H 2256 V 1504 H 0 Z"
       clip-rule="nonzero"
       id="path2" />
  </clipPath>
  <g
     clip-path="url(#g18bf9d2af8b_0_7.0)"
     id="g17"
     transform="matrix(1.6923733,0,0,1.6923733,-1156.997,-520.67364)">
    <path
       fill="#9900ff"
       d="m 683.65356,752.00525 v 0 c 0,-243.69238 198.94067,-441.24408 444.34644,-441.24408 q 222.1732,0 444.3464,0 0,220.62201 0,441.24408 v 0 c 0,243.69238 -198.9406,441.24415 -444.3464,441.24415 v 0 c -245.40576,0 -444.34644,-197.55177 -444.34644,-441.24415 z"
       fill-rule="evenodd"
       id="path7" />
    <path
       fill="#ffffff"
       d="m 781.41724,752.07904 v 0 c 0,-192.87347 155.10687,-349.22836 346.44096,-349.22836 v 0 c 91.8818,0 180.0005,36.79361 244.9707,102.28662 64.9703,65.49301 101.4702,154.32059 101.4702,246.94174 v 0 c 0,192.87347 -155.1068,349.22836 -346.4409,349.22836 v 0 c -191.33409,0 -346.44096,-156.35489 -346.44096,-349.22836 z"
       fill-rule="evenodd"
       id="path9" />
    <path
       fill="#8e7cc3"
       d="m 905.6081,836.5744 v 0 c 0,-74.79761 61.70007,-135.4331 137.811,-135.4331 v 0 c 36.5498,0 71.6025,14.2688 97.4471,39.66742 25.8446,25.39868 40.3639,59.84656 40.3639,95.76569 v 0 c 0,74.79761 -61.7001,135.43304 -137.811,135.43304 v 0 c -76.11094,0 -137.81101,-60.63544 -137.81101,-135.43304 z"
       fill-rule="evenodd"
       id="path11" />
    <path
       fill="#9900ff"
       d="m 938.71606,723.8717 v 0 c 0,-118.07587 97.30574,-213.79526 217.33864,-213.79526 v 0 c 57.6417,0 112.9226,22.52481 153.6815,62.61917 40.7589,40.09442 63.657,94.47406 63.657,151.17609 v 0 c 0,118.07587 -97.3058,213.79529 -217.3385,213.79529 v 0 c -120.0329,0 -217.33864,-95.71942 -217.33864,-213.79529 z"
       fill-rule="evenodd"
       id="path13" />
    <path
       stroke="#ffffff"
       stroke-width="24"
       stroke-linejoin="round"
       stroke-linecap="butt"
       d="m 938.71606,723.8717 v 0 c 0,-118.07587 97.30574,-213.79526 217.33864,-213.79526 v 0 c 57.6417,0 112.9226,22.52481 153.6815,62.61917 40.7589,40.09442 63.657,94.47406 63.657,151.17609 v 0 c 0,118.07587 -97.3058,213.79529 -217.3385,213.79529 v 0 c -120.0329,0 -217.33864,-95.71942 -217.33864,-213.79529 z"
       fill-rule="evenodd"
       id="path15" />
  </g>
</svg>
