<?xml version="1.0" encoding="UTF-8" standalone="no"?>
<!-- Created with Inkscape (http://www.inkscape.org/) -->

<svg
   width="512.0px"
   height="512.0px"
   viewBox="0 0 512.0 512.0"
   version="1.1"
   id="SVGRoot"
   sodipodi:docname="radix_globe_icon_dark.svg"
   inkscape:version="1.2.1 (9c6d41e410, 2022-07-14)"
   inkscape:export-filename="radix_globe_icon_dark.png"
   inkscape:export-xdpi="96"
   inkscape:export-ydpi="96"
   xmlns:inkscape="http://www.inkscape.org/namespaces/inkscape"
   xmlns:sodipodi="http://sodipodi.sourceforge.net/DTD/sodipodi-0.dtd"
   xmlns:xlink="http://www.w3.org/1999/xlink"
   xmlns="http://www.w3.org/2000/svg"
   xmlns:svg="http://www.w3.org/2000/svg">
  <sodipodi:namedview
     id="namedview311"
     pagecolor="#ffffff"
     bordercolor="#000000"
     borderopacity="0.25"
     inkscape:showpageshadow="2"
     inkscape:pageopacity="0.0"
     inkscape:pagecheckerboard="0"
     inkscape:deskcolor="#d1d1d1"
     inkscape:document-units="px"
     showgrid="true"
     inkscape:zoom="1.2938916"
     inkscape:cx="228.3808"
     inkscape:cy="255.81741"
     inkscape:window-width="1503"
     inkscape:window-height="933"
     inkscape:window-x="0"
     inkscape:window-y="0"
     inkscape:window-maximized="1"
     inkscape:current-layer="layer1">
    <inkscape:grid
       type="xygrid"
       id="grid4302"
       originx="256"
       originy="256" />
  </sodipodi:namedview>
  <defs
     id="defs306">
    <linearGradient
       inkscape:collect="always"
       id="linearGradient20367">
      <stop
         style="stop-color:#57e38a;stop-opacity:1;"
         offset="0"
         id="stop20363" />
      <stop
         style="stop-color:#3884e3;stop-opacity:1;"
         offset="1"
         id="stop20365" />
    </linearGradient>
    <linearGradient
       inkscape:collect="always"
       id="linearGradient17447">
      <stop
         style="stop-color:#57e38a;stop-opacity:1;"
         offset="0"
         id="stop17443" />
      <stop
         style="stop-color:#3884e3;stop-opacity:1;"
         offset="1"
         id="stop17445" />
    </linearGradient>
    <linearGradient
       inkscape:collect="always"
       id="linearGradient14533">
      <stop
         style="stop-color:#b58457;stop-opacity:1;"
         offset="0"
         id="stop14529" />
      <stop
         style="stop-color:#57e38a;stop-opacity:1;"
         offset="0.30000001"
         id="stop14537" />
      <stop
         style="stop-color:#3983e3;stop-opacity:1;"
         offset="1"
         id="stop14531" />
    </linearGradient>
    <linearGradient
       inkscape:collect="always"
       id="linearGradient4753">
      <stop
         style="stop-color:#faf16b;stop-opacity:1;"
         offset="0"
         id="stop4749" />
      <stop
         style="stop-color:#57e38a;stop-opacity:1;"
         offset="0.30000001"
         id="stop10171" />
      <stop
         style="stop-color:#3583e3;stop-opacity:1;"
         offset="1"
         id="stop4751" />
    </linearGradient>
    <linearGradient
       inkscape:collect="always"
       xlink:href="#linearGradient4753"
       id="linearGradient6211"
       x1="26"
       y1="96"
       x2="286"
       y2="236"
       gradientUnits="userSpaceOnUse" />
    <linearGradient
       inkscape:collect="always"
       xlink:href="#linearGradient14533"
       id="linearGradient14535"
       x1="476"
       y1="486"
       x2="256"
       y2="306"
       gradientUnits="userSpaceOnUse" />
    <linearGradient
       inkscape:collect="always"
       xlink:href="#linearGradient17447"
       id="linearGradient17449"
       x1="76"
       y1="386"
       x2="196"
       y2="286"
       gradientUnits="userSpaceOnUse" />
    <linearGradient
       inkscape:collect="always"
       xlink:href="#linearGradient20367"
       id="linearGradient20361"
       x1="326"
       y1="166"
       x2="496"
       y2="46"
       gradientUnits="userSpaceOnUse" />
  </defs>
  <g
     inkscape:label="Layer 1"
     inkscape:groupmode="layer"
     id="layer1">
    <circle
       style="fill:#000000;fill-opacity:1;stroke:#ffffff;stroke-width:15.36;stroke-dasharray:none;stroke-opacity:1"
       id="path1157"
       cx="256"
       cy="256"
       r="240" />
    <path
       style="fill:url(#linearGradient6211);fill-opacity:1;stroke:#f9f06b;stroke-width:0;stroke-dasharray:none"
       d="m 96,96 c 30,0 101.14382,-18.856181 120,0 18.85618,18.85618 -11.78511,28.21489 0,40 11.78511,11.78511 43.50084,-16.49916 60,0 16.49916,16.49916 37.71236,42.28764 0,80 -37.71236,37.71236 -197.573593,42.42641 -240,0 -42.426407,-42.42641 -21.213203,-98.7868 0,-120 21.213203,-21.213203 30,0 60,0 z"
       id="path4667"
       sodipodi:nodetypes="zzzzzzzz" />
    <path
       style="fill:url(#linearGradient14535);fill-opacity:1;stroke:#f9f06b;stroke-width:0;stroke-dasharray:none"
       d="m 476,416 c -18.85618,18.85618 -61.14382,-18.85618 -80,0 -14.14214,14.14214 14.14214,45.85786 0,60 -28.28427,28.28427 -91.71573,28.28427 -120,0 -37.71236,-37.71236 -37.71236,-122.28764 0,-160 28.28427,-28.28427 91.71573,-28.28427 120,0 9.42809,9.42809 -9.42809,30.57191 0,40 18.85618,18.85618 61.14382,-18.85618 80,0 14.14214,14.14214 14.14214,45.85786 0,60 z"
       id="path4718"
       sodipodi:nodetypes="aaaaaaaaa" />
    <path
       style="fill:url(#linearGradient20361);fill-opacity:1;stroke:#f9f06b;stroke-width:0;stroke-dasharray:none"
       d="m 396,166 c -19.97517,0.99627 -45.85786,14.14214 -60,0 -28.28427,-28.28427 -28.28427,-91.715729 0,-120 16.49916,-16.499158 53.50084,-16.499158 70,0 11.78511,11.785113 -11.78511,38.214887 0,50 21.2132,21.2132 68.7868,-21.213203 90,0 14.14214,14.14214 13.42011,45.17095 0,60 -22.4784,24.83835 -66.542,8.33126 -100,10 z"
       id="path4720"
       sodipodi:nodetypes="aaaaaaaa" />
    <path
       style="fill:#ff3aef;fill-opacity:1;stroke:#f9f06b;stroke-width:0;stroke-dasharray:none"
       d="m 76,386 v 0 0"
       id="path4722" />
    <path
       style="fill:url(#linearGradient17449);fill-opacity:1;stroke:#f9f06b;stroke-width:0;stroke-dasharray:none"
       d="m 76,386 c -25.927249,-25.92725 -23.570226,-76.42977 0,-100 28.28427,-28.28427 94.07275,-25.92725 120,0 25.92725,25.92725 25.92725,74.07275 0,100 -25.92725,25.92725 -94.07275,25.92725 -120,0 z"
       id="path4724"
       sodipodi:nodetypes="zazzz" />
  </g>
</svg>
